<svg width="39" height="34" viewBox="0 0 39 34" fill="none" xmlns="http://www.w3.org/2000/svg">
<path d="M19.5001 9.51642C20.7501 4.57237 25.4712 2.0479 35.7501 2.00172C35.9144 2.0011 36.0773 2.03307 36.2292 2.09579C36.3811 2.15851 36.5192 2.25074 36.6354 2.36717C36.7516 2.48359 36.8436 2.62191 36.9062 2.77414C36.9688 2.92638 37.0007 3.08952 37.0001 3.25417V25.7983C37.0001 26.1304 36.8684 26.449 36.634 26.6839C36.3996 26.9188 36.0816 27.0507 35.7501 27.0507C25.7501 27.0507 21.8868 29.0711 19.5001 32.0605M19.5001 9.51642C18.2501 4.57237 13.529 2.0479 3.25013 2.00172C3.0858 2.0011 2.92298 2.03307 2.77104 2.09579C2.61911 2.15851 2.48106 2.25074 2.36487 2.36717C2.24867 2.48359 2.15662 2.62191 2.09402 2.77414C2.03142 2.92638 1.99951 3.08952 2.00013 3.25417V25.6472C2.00013 26.4206 2.47826 27.0507 3.25013 27.0507C13.2501 27.0507 17.1275 29.086 19.5001 32.0605M19.5001 9.51642V32.0605" stroke="url(#paint0_linear_186_6227)" stroke-width="3" stroke-linecap="round" stroke-linejoin="round"/>
<defs>
<linearGradient id="paint0_linear_186_6227" x1="19.5001" y1="2.00171" x2="19.5001" y2="32.0605" gradientUnits="userSpaceOnUse">
<stop stop-color="#4BA283"/>
<stop offset="1" stop-color="#C9E87D" stop-opacity="0.9"/>
</linearGradient>
</defs>
</svg>
