<svg width="40" height="40" viewBox="0 0 40 40" fill="none" xmlns="http://www.w3.org/2000/svg">
<path d="M33.3335 10.0044H38.3335V13.3377H36.6668V31.6711H38.3335V35.0044H1.66679V31.6711H3.33346V13.3377H1.66679V10.0044H6.66679V6.67106C6.66679 6.22903 6.84239 5.80511 7.15495 5.49255C7.46751 5.17999 7.89143 5.00439 8.33346 5.00439H31.6668C32.1088 5.00439 32.5327 5.17999 32.8453 5.49255C33.1579 5.80511 33.3335 6.22903 33.3335 6.67106V10.0044ZM33.3335 13.3377H6.66679V31.6711H11.6668V20.0044H15.0001V31.6711H18.3335V20.0044H21.6668V31.6711H25.0001V20.0044H28.3335V31.6711H33.3335V13.3377ZM10.0001 8.33773V10.0044H30.0001V8.33773H10.0001Z" fill="url(#paint0_linear_186_6223)"/>
<defs>
<linearGradient id="paint0_linear_186_6223" x1="20.0001" y1="5.00439" x2="20.0001" y2="35.0044" gradientUnits="userSpaceOnUse">
<stop stop-color="#1D8C89"/>
<stop offset="1" stop-color="#C9E87D" stop-opacity="0.9"/>
</linearGradient>
</defs>
</svg>
