<svg width="84" height="86" viewBox="0 0 84 86" fill="none" xmlns="http://www.w3.org/2000/svg">
<path fill-rule="evenodd" clip-rule="evenodd" d="M60.4226 1.82616C58.6425 4.76356 58.2271 6.22685 58.2137 9.60928C58.2018 12.5433 58.2606 12.7899 59.6216 15.5138C60.403 17.0769 61.5799 18.934 62.2365 19.6401C62.8934 20.3463 63.4309 21.0137 63.4309 21.1233C63.4309 21.233 62.2996 21.2273 60.9169 21.1105C59.4634 20.9874 58.3199 21.0316 58.2069 21.2148C57.9262 21.6689 58.8281 23.6444 59.6506 24.3769C60.0349 24.7193 60.929 25.2022 61.6372 25.4501C62.8644 25.8793 62.9207 25.964 62.8374 27.2465C62.7007 29.3518 61.1649 34.2782 59.6942 37.3303C58.8152 39.1543 57.6421 40.8713 56.2827 42.3248C53.6561 45.1326 53.0673 45.4744 52.6499 44.4349C52.4519 43.941 52.3439 47.6895 52.3517 54.7951C52.3584 60.9189 52.4691 65.5497 52.5977 65.0857C52.821 64.28 52.9816 64.2318 56.1913 64.0088C60.7958 63.6886 64.0331 63.224 70.2682 61.9884C73.1935 61.4088 75.6656 61.013 75.7618 61.1091C75.8579 61.205 75.5711 62.2897 75.1248 63.5195C74.1622 66.1718 72.4465 68.376 70.0604 70.0269L68.3231 71.2291L70.0101 71.0213C74.7516 70.4379 79.0565 66.0294 80.3477 60.435C80.8001 58.4761 80.3281 57.143 78.8986 56.3417C78.1296 55.9105 77.691 55.9014 75.8016 56.2769C73.4587 56.7429 69.6791 56.9382 69.3515 56.6106C69.2432 56.5023 69.4578 55.7459 69.8279 54.9297C70.7477 52.9023 70.7352 48.8633 69.7952 44.583C68.8923 40.4698 68.8225 36.9787 69.613 35.4847C70.3792 34.0369 71.6371 33.4391 74.8042 33.0173C77.8287 32.6145 81.3751 31.0678 82.2155 29.7847C82.9143 28.7182 82.6622 28.4996 79.9634 27.8325C77.5932 27.2465 72.7991 25.0004 72.6243 24.3938C72.5551 24.1539 73.4985 23.9538 75.2736 23.8323C77.5166 23.6785 78.4812 23.4204 80.4506 22.447C81.782 21.789 83.166 20.9216 83.526 20.5194C84.0975 19.8814 83.9204 19.9188 82.1389 20.8146C78.825 22.4804 76.583 22.9935 73.2704 22.8437C70.2001 22.7054 68.3629 22.066 66.3122 20.4226C65.4087 19.6985 65.3007 19.3969 65.1799 17.2584C64.9586 13.3446 66.1314 10.2132 68.9895 7.08486C69.974 6.00754 70.1306 5.71333 69.5587 6.01632C66.8764 7.43643 64.3499 11.2207 63.9268 14.453C63.8158 15.3005 63.6444 16.4224 63.5459 16.9453C63.3742 17.8577 63.3408 17.8728 62.7237 17.3144C62.3697 16.9943 61.6787 15.8832 61.1878 14.8454C59.5076 11.2939 60.093 7.7249 63.1299 3.00436L63.8897 1.82346L62.7868 2.83566C62.1801 3.39237 61.3032 4.49296 60.8383 5.2818C60.3733 6.07064 59.8635 6.71574 59.7056 6.71574C59.3716 6.71574 60.1277 4.01959 61.093 1.76745C61.4604 0.910798 61.7105 0.159412 61.6494 0.0980051C61.588 0.0365985 61.036 0.814303 60.4226 1.82616ZM48.5853 46.6057C46.984 47.2117 45.7667 47.3288 39.7067 47.459C35.8441 47.542 32.7822 47.7084 32.9027 47.8285C33.0231 47.9486 34.4604 47.9965 36.0972 47.9344C38.6175 47.8389 39.1219 47.9091 39.3925 48.3929C39.6928 48.9294 39.7259 48.9294 39.9327 48.3906C40.1051 47.9408 40.4999 47.8376 41.7543 47.9128C43.7048 48.0302 46.5677 47.6456 48.5128 47.0049C49.308 46.743 50.1077 46.5288 50.2898 46.5288C50.5004 46.5288 50.5881 49.6899 50.5311 55.2016L50.441 63.8748L49.5975 64.1093C49.1221 64.2412 48.9996 64.3583 49.3168 64.3772C50.9704 64.4761 50.9471 64.6107 50.9471 54.9277C50.9471 49.9372 50.8334 45.8651 50.694 45.8786C50.5547 45.8921 49.6059 46.2194 48.5853 46.6057ZM29.7801 47.7832C30.2929 47.8605 31.052 47.8585 31.467 47.7785C31.882 47.6986 31.4623 47.6351 30.5345 47.6375C29.6066 47.6402 29.2672 47.7056 29.7801 47.7832ZM22.3941 48.5549C19.5562 49.1963 16.8293 50.3988 14.9291 51.8469C13.8383 52.6782 11.8088 55.1875 11.8088 55.705C11.8088 55.8542 12.3534 55.976 13.0191 55.976C14.0337 55.976 14.5647 55.6565 16.3087 53.9968C19.6928 50.7756 21.0448 50.36 19.736 52.9424C19.265 53.8719 18.489 56.2634 18.0119 58.2564C16.7355 63.585 15.778 65.1397 11.0426 69.5715C8.8313 71.6411 6.75157 73.8696 6.42059 74.5241C6.08994 75.1783 5.31055 77.2024 4.68872 79.022C3.78382 81.6699 3.23149 82.6966 1.9207 84.1673C0.524542 85.7339 0.387222 86.0045 0.988804 86.0045C2.19568 86.0045 4.65127 84.6478 5.85409 83.3167C6.48672 82.6163 7.64062 80.9539 8.41833 79.6222C11.6223 74.1365 13.3255 73.0686 22.1801 70.9929C28.8542 69.4284 33.4334 67.293 36.7973 64.1764L38.3361 62.7506L41.5209 63.4075C44.2524 63.9713 48.9834 64.333 48.5573 63.9457C48.4797 63.8755 47.149 63.724 45.5993 63.6089C42.9025 63.4085 39.4543 62.7148 37.9012 62.0603C37.1138 61.7279 36.6357 62.3022 36.9717 63.1774C37.076 63.45 36.4039 64.1909 35.2884 65.0331C33.206 66.6054 32.9141 66.7106 33.1517 65.8034C33.2785 65.3172 33.1709 65.2096 32.6847 65.3364C32.0278 65.5085 31.7994 66.0979 32.3902 66.0979C33.2131 66.0979 32.6044 66.8372 31.2936 67.4296C30.5051 67.7859 29.136 68.4061 28.2513 68.8076C27.3666 69.2091 26.0002 69.6214 25.2147 69.724C24.4292 69.8265 23.7106 70.0195 23.6178 70.1528C23.525 70.2861 21.7297 70.7969 19.6281 71.2875C13.3835 72.746 11.1563 74.2846 8.33566 79.0888C7.68212 80.2015 6.82985 81.4769 6.4415 81.923C6.0535 82.369 5.73567 82.8481 5.73567 82.9878C5.73567 83.3484 2.67681 85.3297 2.11977 85.3297C1.83129 85.3297 2.10728 84.7389 2.84888 83.7672C3.50512 82.9078 4.30003 81.3517 4.6155 80.3088C4.93097 79.2663 5.38781 78.1734 5.63107 77.8802C5.874 77.5874 6.07307 77.0887 6.07307 76.7726C6.07307 75.2887 7.84272 72.8213 10.7008 70.3201C14.6892 66.8297 17.2072 63.8448 17.2072 62.6079C17.2072 62.3747 17.3557 62.0356 17.5372 61.8541C17.7184 61.6729 17.9421 60.9212 18.0342 60.184C18.3598 57.5766 18.9792 55.591 19.5859 55.2124C20.0107 54.9472 20.1483 54.5636 20.0326 53.9684C19.9179 53.3793 20.1426 52.7359 20.7455 51.9272C21.4466 50.9869 21.5222 50.7247 21.117 50.6397C20.2415 50.4565 18.3132 51.5874 16.5625 53.3109C14.7709 55.0744 13.2627 55.8778 12.7347 55.3498C12.3487 54.9638 14.3015 52.7332 16.1414 51.4582C17.6145 50.4376 21.6282 48.8906 22.804 48.8906C23.2298 48.8906 23.6775 49.0515 23.799 49.2482C23.939 49.475 24.1779 49.3896 24.4518 49.0154C24.7052 48.6686 25.5626 48.3305 26.5282 48.1966L28.1727 47.9685L26.6544 47.952C25.8193 47.9428 23.9022 48.2141 22.3941 48.5549ZM33.6365 48.7688C33.3669 49.0384 33.6716 49.5654 34.0971 49.5654C34.2718 49.5654 34.4146 49.3376 34.4146 49.0593C34.4146 48.5377 34.0164 48.3889 33.6365 48.7688ZM25.6776 49.8809C25.3524 50.0819 25.3203 50.3279 25.5629 50.7611C25.8726 51.3148 25.9182 51.3027 26.1388 50.6073C26.4236 49.7098 26.2913 49.5016 25.6776 49.8809ZM48.0971 51.5611C47.9885 51.7369 48.0434 51.9694 48.2192 52.078C48.395 52.1866 48.6275 52.1316 48.7361 51.9559C48.8448 51.7801 48.7898 51.5476 48.614 51.439C48.4382 51.3303 48.2057 51.3853 48.0971 51.5611ZM41.9969 53.629C41.6916 54.123 42.1356 54.6203 42.6916 54.4067C42.9639 54.3025 43.1869 54.0973 43.1869 53.9516C43.1869 53.5335 42.2183 53.2707 41.9969 53.629ZM35.9983 54.1672C35.7287 54.4368 36.0334 54.9638 36.4589 54.9638C36.6336 54.9638 36.7763 54.736 36.7763 54.4577C36.7763 53.9361 36.3782 53.7873 35.9983 54.1672ZM25.9779 58.0014C25.3969 58.3604 25.7367 58.7824 26.6611 58.8506C27.4277 58.9069 27.5242 58.5824 26.896 58.0611C26.6318 57.8418 26.2741 57.8185 25.9779 58.0014ZM47.6895 59.5332C47.5795 59.8196 47.5809 60.1449 47.6919 60.2562C47.9837 60.5477 48.9507 59.6685 48.7304 59.3118C48.4422 58.8459 47.9098 58.9592 47.6895 59.5332ZM39.8777 60.7249C39.9442 60.9243 40.1429 61.0876 40.319 61.0876C40.4952 61.0876 40.6939 60.9243 40.7604 60.7249C40.8268 60.5255 40.6284 60.3622 40.319 60.3622C40.0096 60.3622 39.8112 60.5255 39.8777 60.7249ZM30.7032 62.7239C30.7032 62.9095 30.94 63.0613 31.2292 63.0613C31.5183 63.0613 31.6614 62.9095 31.5467 62.7239C31.432 62.5384 31.1954 62.3865 31.0207 62.3865C30.8459 62.3865 30.7032 62.5384 30.7032 62.7239ZM21.2658 66.7596C20.9928 66.9323 20.8724 67.1763 20.9982 67.3021C21.307 67.6108 22.2682 67.2181 22.2682 66.7832C22.2682 66.3547 21.919 66.3466 21.2658 66.7596ZM15.1828 68.7867C15.1828 68.9662 15.4106 69.0259 15.6889 68.9193C15.9673 68.8123 16.195 68.6652 16.195 68.5923C16.195 68.5194 15.9673 68.4597 15.6889 68.4597C15.4106 68.4597 15.1828 68.6068 15.1828 68.7867ZM10.7966 73.605C10.7966 73.9725 10.9788 74.1911 11.2184 74.1112C11.8412 73.904 11.9219 72.9583 11.3166 72.9583C11.0291 72.9583 10.7966 73.2474 10.7966 73.605Z" fill="#262626"/>
</svg>
