<svg width="40" height="40" viewBox="0 0 40 40" fill="none" xmlns="http://www.w3.org/2000/svg">
<path d="M20.0001 11.6681V8.3348C20.0001 6.50146 18.5001 5.00146 16.6668 5.00146H6.66678C4.83345 5.00146 3.33345 6.50146 3.33345 8.3348V31.6681C3.33345 33.5015 4.83345 35.0015 6.66678 35.0015H33.3335C35.1668 35.0015 36.6668 33.5015 36.6668 31.6681V15.0015C36.6668 13.1681 35.1668 11.6681 33.3335 11.6681H20.0001ZM10.0001 31.6681H6.66678V28.3348H10.0001V31.6681ZM10.0001 25.0015H6.66678V21.6681H10.0001V25.0015ZM10.0001 18.3348H6.66678V15.0015H10.0001V18.3348ZM10.0001 11.6681H6.66678V8.3348H10.0001V11.6681ZM16.6668 31.6681H13.3335V28.3348H16.6668V31.6681ZM16.6668 25.0015H13.3335V21.6681H16.6668V25.0015ZM16.6668 18.3348H13.3335V15.0015H16.6668V18.3348ZM16.6668 11.6681H13.3335V8.3348H16.6668V11.6681ZM31.6668 31.6681H20.0001V28.3348H23.3335V25.0015H20.0001V21.6681H23.3335V18.3348H20.0001V15.0015H31.6668C32.5834 15.0015 33.3335 15.7515 33.3335 16.6681V30.0015C33.3335 30.9181 32.5834 31.6681 31.6668 31.6681ZM30.0001 18.3348H26.6668V21.6681H30.0001V18.3348ZM30.0001 25.0015H26.6668V28.3348H30.0001V25.0015Z" fill="url(#paint0_linear_186_6225)"/>
<defs>
<linearGradient id="paint0_linear_186_6225" x1="20.0001" y1="5.00146" x2="20.0001" y2="35.0015" gradientUnits="userSpaceOnUse">
<stop stop-color="#1D8C89"/>
<stop offset="1" stop-color="#C9E87D" stop-opacity="0.9"/>
</linearGradient>
</defs>
</svg>
