<svg width="68" height="69" viewBox="0 0 68 69" fill="none" xmlns="http://www.w3.org/2000/svg">
<path fill-rule="evenodd" clip-rule="evenodd" d="M47.8472 1.62069C46.6142 3.53368 45.5792 6.47873 45.5792 8.07347C45.5792 10.491 46.6531 13.3089 48.5559 15.8848L49.5941 17.2903H47.5868C46.3748 17.2903 45.5792 17.4001 45.5792 17.5675C45.5792 18.0388 46.5616 19.798 47.0931 20.2788C47.3706 20.5296 48.0479 20.9231 48.598 21.1531C49.5603 21.555 49.5917 21.6089 49.4195 22.5626C49.0218 24.7645 47.8898 28.2101 46.8668 30.3326C46.044 32.0398 45.3302 33.0327 43.8967 34.4641L42.0096 36.3483L41.8187 34.0344C41.714 32.7616 41.501 31.5022 41.3462 31.2357C41.1452 30.8902 41.0642 34.6189 41.0642 44.2113C41.0642 53.9421 41.1436 57.5351 41.3507 57.1787C41.5085 56.9074 41.7145 55.588 41.8091 54.2467L41.9808 51.8079L44.6175 51.62C47.3208 51.4272 52.1964 50.703 56.89 49.7971C58.3466 49.5158 59.5802 49.3277 59.6317 49.3788C59.6828 49.4303 59.4789 50.1177 59.1785 50.9064C58.3781 53.0081 56.9556 54.7772 55.1705 55.8916C53.6776 56.8234 53.0224 57.7262 54.0419 57.4466C54.2984 57.3763 54.9882 57.2382 55.5746 57.1398C58.9816 56.5684 61.8219 53.8811 63.2695 49.8594C64.1981 47.2793 64.1693 46.7555 63.0357 45.6219C62.2497 44.8359 61.9626 44.7084 61.2365 44.8236C58.3952 45.2746 55.1601 45.6184 55.0258 45.4838C54.9394 45.3977 55.0876 44.9262 55.3549 44.436C55.9819 43.2872 55.9747 38.5766 55.3419 35.7312C54.7947 33.2707 54.7715 29.7894 55.2955 28.776C55.758 27.8817 56.5672 27.5251 58.9794 27.1525C62.1164 26.6679 64.6211 25.4956 65.3237 24.1829C65.7113 23.4584 65.2813 22.9957 64.0323 22.7929C62.8094 22.5943 59.1697 21.2061 58.1843 20.5627L57.4593 20.089L59.4827 19.9238C61.7843 19.7356 63.8593 18.9053 65.8821 17.3626C67.826 15.8803 67.475 15.5487 65.2368 16.753C62.5823 18.1814 59.5024 18.9994 57.5878 18.7846C55.8489 18.5897 52.3856 16.9894 51.953 16.1807C51.7782 15.8542 51.6996 14.6968 51.759 13.3289C51.8864 10.4033 52.7633 8.49328 54.9962 6.27669C56.64 4.64517 56.8068 4.18991 55.5159 4.85734C52.7268 6.29988 50.5428 9.58265 50.1704 12.8923L49.9606 14.7581L49.2135 13.5949C47.0566 10.2378 47.3144 7.37992 50.1464 3.24874C50.5665 2.63596 50.91 1.99545 50.91 1.82566C50.91 1.34748 49.2783 2.82654 48.2926 4.19791C47.4788 5.33019 47.422 5.36484 47.5852 4.62945C47.6825 4.18965 48.1646 2.96008 48.6567 1.89736C49.7682 -0.50394 49.3158 -0.658803 47.8472 1.62069ZM38.3824 37.355C37.2723 37.875 36.5486 37.931 28.6536 38.1053C23.8784 38.2106 19.4788 38.4324 18.6581 38.6088C14.3433 39.5364 11.0683 41.4289 9.56283 43.8643C9.08518 44.6375 9.04973 44.8393 9.35732 45.0339C10.3534 45.6648 11.4486 45.1904 13.694 43.1556C14.6935 42.2498 15.5611 41.5584 15.6219 41.6195C15.6827 41.6802 15.4998 42.2584 15.2157 42.9039C14.9313 43.5498 14.3159 45.5174 13.8481 47.2766C12.7843 51.2782 11.9481 52.5888 8.6094 55.4902C5.64409 58.0666 4.8042 59.2418 3.84144 62.1618C2.90561 65.0008 2.41569 65.9419 1.09363 67.4415C0.492041 68.1239 0 68.7534 0 68.8409C0 68.9286 0.321988 69 0.715408 69C2.59375 69 5.45084 66.592 6.851 63.8288C7.78684 61.9819 10.1572 59.579 11.8143 58.7975C12.5732 58.4395 14.4038 57.8885 15.8829 57.573C21.8212 56.3061 26.3743 54.3211 28.9729 51.8662L30.3581 50.5575L32.7045 51.0999C33.9949 51.3982 36.2501 51.6797 37.7161 51.7252L40.3815 51.8079L40.4524 44.278C40.5324 35.7643 40.6854 36.276 38.3824 37.355ZM38.1908 38.2333L37.3331 38.6086L37.8731 39.8685C38.17 40.5613 38.5192 41.2562 38.649 41.4126C38.7865 41.5784 38.782 41.8601 38.6378 42.088C38.5019 42.3029 38.3888 42.9756 38.3864 43.5831C38.3827 44.6314 38.6708 45.011 39.4705 45.011C39.607 45.011 39.7152 43.4202 39.7152 41.4126C39.7152 37.504 39.7397 37.5555 38.1908 38.2333ZM35.2644 38.8055C34.4698 38.905 34.4016 38.9967 34.2545 40.1623C34.1678 40.8499 34.0447 41.7426 33.9807 42.1456C33.8405 43.0297 33.8195 43.0289 35.9835 42.2306C37.8853 41.5291 37.9429 41.4044 37.1939 39.6134C36.9642 39.0638 36.6278 38.6331 36.4465 38.6566C36.265 38.68 35.7333 38.7472 35.2644 38.8055ZM21.6981 39.4485L21.1903 40.0167L23.0561 39.828C25.3812 39.5932 26.1214 39.4218 26.1214 39.1182C26.1214 38.9873 25.2405 38.8804 24.1636 38.8804C22.5022 38.8804 22.1291 38.9665 21.6981 39.4485ZM27.4512 39.88C27.6588 40.959 28.5136 42.8786 28.7866 42.8786C28.9814 42.8786 30.9192 39.4559 30.9192 39.1118C30.9192 38.9847 30.0956 38.8804 29.0891 38.8804H27.2593L27.4512 39.88ZM31.7314 39.2136C31.7383 39.397 32.088 40.2065 32.5086 41.0128C33.3405 42.6083 33.4516 42.539 33.6827 40.2798L33.8261 38.8804H32.7725C32.1005 38.8804 31.7234 39.0012 31.7314 39.2136ZM19.9021 39.3248C19.6044 39.6222 19.703 39.9466 20.0916 39.9466C20.2934 39.9466 20.6079 39.7667 20.7905 39.5468C21.0661 39.2147 21.0341 39.147 20.601 39.147C20.3142 39.147 19.9997 39.227 19.9021 39.3248ZM16.5924 39.9549C15.7275 40.3027 15.8549 40.5522 16.7923 40.3464C17.8087 40.1233 17.8684 40.6602 16.9256 41.5459C16.5591 41.8903 16.2592 42.2712 16.2592 42.3927C16.2592 42.5947 17.4979 41.2732 18.3647 40.1465C18.6875 39.7267 18.6467 39.6817 17.9577 39.6969C17.5368 39.7062 16.9224 39.8224 16.5924 39.9549ZM23.1894 40.2502C22.5297 40.3859 21.7343 40.5517 21.4219 40.6186C20.6482 40.7846 20.5573 41.3364 20.8982 43.7902L21.1903 45.8916L22.4564 44.3851C23.1529 43.5564 24.2769 42.2189 24.9542 41.4126L26.1862 39.9466L25.2874 39.9751C24.7932 39.9909 23.8491 40.1145 23.1894 40.2502ZM30.9978 40.2798C30.6177 40.7796 29.3199 43.0844 29.3199 43.2592C29.3199 43.5077 32.7405 43.4328 32.8962 43.1809C33.0196 42.9815 31.5514 39.9466 31.3315 39.9466C31.2873 39.9466 31.137 40.0967 30.9978 40.2798ZM17.4752 41.9844C16.6436 42.9583 16.0599 43.8488 16.1779 43.9629C16.296 44.0773 17.3411 44.6802 18.5009 45.3034L20.6092 46.4359L20.424 43.8017C20.2499 41.3276 19.864 40.2132 19.1811 40.2132C19.0745 40.2132 18.3068 41.0101 17.4752 41.9844ZM24.0157 43.2462C22.6387 44.9142 21.4995 46.3837 21.4843 46.5114C21.4523 46.7827 23.969 47.3504 25.3218 47.3766C26.1715 47.3931 26.332 47.2673 27.1209 45.9628C27.6625 45.0675 27.9872 44.1799 27.9872 43.5938C27.9872 42.6145 27.094 40.2132 26.7296 40.2132C26.614 40.2132 25.3927 41.5781 24.0157 43.2462ZM13.8414 41.0064C12.6678 41.6269 12.1233 42.2288 12.5159 42.4716C12.824 42.6622 14.8298 41.3457 15.043 40.8129C15.2213 40.3675 14.975 40.4072 13.8414 41.0064ZM36.1835 42.6552C35.3404 42.9492 34.6508 43.2742 34.6508 43.3773C34.6508 43.4805 35.3705 43.7579 36.2501 43.9936L37.8494 44.4222V43.2504C37.8494 42.6062 37.8192 42.0886 37.7827 42.1C37.7462 42.1115 37.0265 42.3615 36.1835 42.6552ZM10.9718 43.2323C10.6546 43.5698 10.3952 43.928 10.3952 44.0285C10.3952 44.4091 11.3975 44.1906 11.8266 43.7164C12.2011 43.3027 12.2149 43.1721 11.9114 42.9202C11.6307 42.6872 11.4169 42.7584 10.9718 43.2323ZM29.9863 43.9173L29.1867 44.0935L29.2682 45.9516C29.3554 47.9328 29.6859 48.4761 30.8043 48.4761C31.1247 48.4761 31.5056 48.3263 31.6506 48.1429C32.0883 47.5901 33.1033 44.2439 32.9223 43.9512C32.7386 43.6543 31.2585 43.6372 29.9863 43.9173ZM33.0627 45.7728C32.1807 48.7341 32.1592 48.7077 35.0346 48.1794C37.7803 47.6748 37.8907 47.5943 37.7974 46.1659L37.7161 44.9235L35.9835 44.4352C35.0306 44.1666 34.1063 43.9464 33.929 43.9459C33.752 43.9453 33.3623 44.7674 33.0627 45.7728ZM15.3476 44.7098C15.1325 45.0579 14.3846 48.0232 14.4864 48.1248C14.6138 48.2522 19.5524 47.1025 19.7947 46.889C20.0082 46.7009 16.32 44.4779 15.7944 44.4779C15.6275 44.4779 15.4265 44.5824 15.3476 44.7098ZM27.5383 46.0963C26.6398 47.6807 26.728 47.8838 28.3324 47.9243C29.051 47.9422 29.071 47.9072 28.8908 46.9434C28.4345 44.504 28.4395 44.5072 27.5383 46.0963ZM38.3824 46.2243C38.3824 47.1852 38.3966 47.199 38.9822 46.8102C39.3122 46.5911 39.5819 46.1867 39.5819 45.9114C39.5819 45.5952 39.3609 45.3793 38.9822 45.3255C38.4531 45.2506 38.3824 45.3564 38.3824 46.2243ZM39.2354 47.1966C38.8001 47.6319 38.8334 47.943 39.3154 47.943C39.5374 47.943 39.7152 47.706 39.7152 47.4099C39.7152 46.7886 39.6656 46.7664 39.2354 47.1966ZM16.9922 48.1325C15.5627 48.5016 14.3934 48.8927 14.3934 49.0012C14.3934 49.1797 17.1468 49.5356 18.5651 49.5404C18.9409 49.5417 19.3314 49.2152 19.6979 48.5941C20.0058 48.0725 20.2574 47.5927 20.2574 47.528C20.2574 47.3299 19.6971 47.4336 16.9922 48.1325ZM23.0561 48.5414C23.6425 49.2109 24.2585 49.7699 24.4248 49.7837C24.7348 49.8093 25.5883 48.6869 25.5883 48.2538C25.5883 48.1213 25.1986 47.9448 24.722 47.8617C24.2454 47.7788 23.4359 47.6239 22.9228 47.5176L21.9899 47.3243L23.0561 48.5414ZM20.5898 48.0096C19.5247 49.3445 19.2557 51.5115 20.1143 51.8409C20.2873 51.9073 21.2508 51.5928 22.2557 51.1418L24.0828 50.3221L22.7797 48.9993C21.4251 47.6239 21.0376 47.4488 20.5898 48.0096ZM25.7882 48.9678C25.0283 50.2547 25.1498 50.4154 26.7211 50.2006C28.3124 49.9828 29.3218 49.6515 29.3159 49.349C29.3053 48.809 28.8103 48.5256 27.5874 48.3593C26.3117 48.1858 26.2347 48.2119 25.7882 48.9678ZM34.9174 48.5832C32.7253 48.9231 32.2519 49.1182 32.2519 49.6819C32.2519 50.1633 32.9063 50.493 34.2758 50.7017C35.2991 50.8576 35.4163 50.8059 36.1587 49.872C37.1574 48.6155 37.4048 48.201 37.1321 48.2415C37.0135 48.2588 36.0169 48.4126 34.9174 48.5832ZM38.3824 49.7126C38.3824 51.0591 38.4208 51.1415 39.0488 51.1415C39.6685 51.1415 39.7152 51.0506 39.7152 49.84C39.7152 48.6632 39.6512 48.5259 39.0488 48.4108C38.4051 48.2879 38.3824 48.3319 38.3824 49.7126ZM29.5865 49.1136C29.5865 49.3175 29.8751 49.5569 30.228 49.6454C30.5809 49.7341 31.0607 49.8799 31.2942 49.9695C31.9171 50.2083 31.8356 49.357 31.2033 49.0185C30.469 48.6256 29.5865 48.6773 29.5865 49.1136ZM36.7253 49.8629L36.0011 50.8163L36.7253 50.9552C37.1236 51.032 37.4874 51.057 37.5338 51.0114C37.5802 50.9658 37.5802 50.4741 37.5338 49.9191L37.4495 48.9095L36.7253 49.8629ZM13.9992 50.0663C13.871 50.2736 14.3188 50.9227 15.2186 51.834C16.0009 52.6259 16.7262 53.2739 16.8302 53.2739C17.0639 53.2739 18.7568 50.3515 18.6088 50.2035C18.5502 50.1449 17.5346 50.0164 16.352 49.9178C14.7746 49.7861 14.1479 49.8256 13.9992 50.0663ZM26.0294 50.6239C24.2532 50.8302 20.2574 52.329 20.2574 52.789C20.2574 53.4058 24.7604 52.6683 26.594 51.7511C28.0645 51.0154 28.8969 50.312 28.2196 50.3768C28.0187 50.3962 27.033 50.5074 26.0294 50.6239ZM18.4334 51.6746C17.7066 52.8578 17.7114 53.0875 18.4582 52.862C19.3853 52.5819 19.5399 52.3196 19.2621 51.4979L19.0065 50.7417L18.4334 51.6746ZM12.8976 52.141C12.2632 53.3421 12.3402 54.6066 13.0479 54.6066C13.6828 54.6066 16.2592 53.7723 16.2592 53.5665C16.259 53.4034 13.7103 51.1415 13.5269 51.1415C13.4709 51.1415 13.1878 51.5914 12.8976 52.141ZM27.5242 51.7578C27.0498 52.0784 26.6598 52.439 26.6579 52.559C26.6542 52.7994 28.1439 51.8015 28.3947 51.3955C28.6096 51.0479 28.5179 51.0861 27.5242 51.7578ZM21.79 53.3552C20.7705 53.5764 20.5247 53.7379 20.5279 54.1849C20.5362 55.2868 20.8974 55.507 21.9097 55.0267C22.4156 54.7865 23.24 54.239 23.7425 53.8096L24.6554 53.0289L23.8558 53.0548C23.416 53.0692 22.4865 53.2043 21.79 53.3552ZM10.9779 54.4205C10.661 54.758 10.23 55.6043 10.0202 56.301C9.67344 57.4533 9.67717 57.5364 10.0615 57.2201C10.8036 56.6091 11.9945 54.8102 11.9945 54.3001C11.9945 53.6406 11.6749 53.6787 10.9779 54.4205ZM17.592 54.0455C17.3721 54.1678 16.6137 54.343 15.9069 54.4349C13.5879 54.7359 13.6266 55.0381 16.0279 55.3828C18.1696 55.6901 19.9911 55.7615 20.206 55.5464C20.2622 55.4902 20.2273 55.076 20.1284 54.6258C19.9669 53.8909 19.848 53.8078 18.9703 53.8149C18.4321 53.8195 17.8119 53.9232 17.592 54.0455ZM10.8177 57.1468C9.98423 58.1295 9.34932 58.9803 9.40663 59.0379C9.4642 59.0952 10.2798 58.742 11.2194 58.2526C12.2739 57.7036 13.8694 57.1803 15.3887 56.8855C16.7425 56.6227 17.7953 56.3194 17.7284 56.2112C17.6615 56.103 16.7939 55.9342 15.8002 55.8362C14.8066 55.7381 13.6199 55.5909 13.1633 55.5091C12.4005 55.3724 12.2107 55.5051 10.8177 57.1468ZM8.81624 56.3175C8.23997 56.9311 8.21731 58.0717 8.78158 58.0717C8.98656 58.0717 9.65105 55.9057 9.49432 55.749C9.45328 55.7082 9.14835 55.9641 8.81624 56.3175ZM6.57912 58.4049C5.50148 59.853 4.99078 60.7371 5.2336 60.7347C5.76589 60.7289 8.26289 59.0965 8.26289 58.7546C8.26289 57.3541 7.48164 57.1921 6.57912 58.4049ZM6.47464 60.7078L4.87031 61.7447L4.98838 63.1733C5.05342 63.9591 5.13392 64.7126 5.1675 64.8478C5.20082 64.9829 5.59531 64.4432 6.04417 63.6483C6.49303 62.8535 7.2956 61.682 7.82815 61.045C8.36044 60.4082 8.79598 59.8383 8.79598 59.7789C8.79598 59.4332 7.87933 59.7999 6.47464 60.7078ZM4.1597 63.5454C3.92647 64.5074 2.76727 66.8143 2.16914 67.5063C1.74987 67.9914 1.75893 67.9981 2.3989 67.6742C2.7654 67.4884 3.45522 66.9679 3.93154 66.5169C4.82313 65.673 5.04383 64.5274 4.55578 63.2789C4.3748 62.8164 4.32869 62.8476 4.1597 63.5454Z" fill="url(#paint0_linear_185_4915)"/>
<path fill-rule="evenodd" clip-rule="evenodd" d="M47.734 2.23292C46.3277 4.55346 45.9996 5.70946 45.9889 8.38157C45.9796 10.6994 46.026 10.8943 47.1012 13.0461C47.7185 14.281 48.6482 15.7481 49.1669 16.3059C49.6859 16.8638 50.1105 17.3911 50.1105 17.4777C50.1105 17.5643 49.2168 17.5598 48.1245 17.4676C46.9762 17.3703 46.0729 17.4052 45.9836 17.5499C45.7618 17.9087 46.4743 19.4693 47.1241 20.048C47.4277 20.3185 48.1341 20.6999 48.6935 20.8958C49.663 21.2349 49.7075 21.3018 49.6416 22.3149C49.5337 23.9782 48.3204 27.87 47.1585 30.2812C46.4642 31.7221 45.5374 33.0785 44.4635 34.2268C42.3884 36.445 41.9233 36.715 41.5936 35.8938C41.4371 35.5036 41.3518 38.4649 41.358 44.0783C41.3633 48.9161 41.4507 52.5744 41.5523 52.2079C41.7287 51.5714 41.8556 51.5333 44.3912 51.3571C48.0288 51.1042 50.5863 50.7371 55.512 49.7611C57.823 49.3031 59.7759 48.9905 59.8519 49.0664C59.9279 49.1421 59.7013 49.9991 59.3487 50.9706C58.5882 53.0659 57.2328 54.8073 55.3478 56.1115L53.9754 57.0612L55.3081 56.897C59.0539 56.4361 62.4547 52.9535 63.4748 48.5339C63.8322 46.9863 63.4593 45.9332 62.33 45.3002C61.7225 44.9595 61.376 44.9523 59.8834 45.249C58.0325 45.6171 55.0466 45.7714 54.7878 45.5126C54.7023 45.427 54.8718 44.8294 55.1642 44.1847C55.8908 42.583 55.8809 39.3922 55.1383 36.0108C54.425 32.7614 54.3699 30.0034 54.9944 28.8232C55.5997 27.6794 56.5934 27.2071 59.0954 26.8739C61.4848 26.5557 64.2864 25.3338 64.9504 24.3202C65.5024 23.4776 65.3033 23.3049 63.1712 22.7779C61.2987 22.3149 57.5114 20.5405 57.3733 20.0613C57.3187 19.8718 58.0639 19.7137 59.4662 19.6178C61.2382 19.4962 62.0002 19.2923 63.5561 18.5233C64.6079 18.0036 65.7012 17.3183 65.9856 17.0006C66.4371 16.4965 66.2972 16.5261 64.8899 17.2338C62.2719 18.5497 60.5007 18.9551 57.8837 18.8368C55.4582 18.7275 54.0068 18.2224 52.3868 16.9241C51.673 16.3521 51.5877 16.1138 51.4923 14.4244C51.3174 11.3325 52.2439 8.85869 54.5018 6.38729C55.2796 5.53621 55.4033 5.30378 54.9515 5.54314C52.8324 6.66503 50.8366 9.65459 50.5023 12.2081C50.4146 12.8777 50.2792 13.7639 50.2014 14.1771C50.0657 14.8978 50.0393 14.9098 49.5518 14.4687C49.2722 14.2157 48.7263 13.338 48.3385 12.5181C47.0111 9.71243 47.4736 6.89292 49.8727 3.16369L50.473 2.23079L49.6017 3.03042C49.1224 3.47022 48.4297 4.33969 48.0624 4.96287C47.6951 5.58605 47.2923 6.09569 47.1676 6.09569C46.9037 6.09569 47.501 3.96573 48.2636 2.18654C48.5539 1.50978 48.7514 0.916188 48.7031 0.867677C48.6546 0.819166 48.2186 1.43355 47.734 2.23292ZM38.3825 37.6087C37.1175 38.0875 36.1558 38.1799 31.3684 38.2828C28.317 38.3484 25.8981 38.4798 25.9933 38.5747C26.0884 38.6696 27.2239 38.7074 28.5169 38.6584C30.508 38.583 30.9065 38.6384 31.1202 39.0206C31.3575 39.4444 31.3836 39.4444 31.547 39.0188C31.6832 38.6635 31.995 38.5819 32.986 38.6413C34.5269 38.7341 36.7886 38.4302 38.3252 37.9241C38.9535 37.7172 39.5852 37.548 39.7291 37.548C39.8954 37.548 39.9647 40.0452 39.9197 44.3995L39.8485 51.2513L39.1822 51.4365C38.8066 51.5408 38.7098 51.6333 38.9604 51.6482C40.2667 51.7263 40.2483 51.8326 40.2483 44.1831C40.2483 40.2406 40.1585 37.0237 40.0484 37.0343C39.9383 37.045 39.1888 37.3035 38.3825 37.6087ZM23.5264 38.539C23.9315 38.6 24.5313 38.5984 24.8591 38.5352C25.187 38.4721 24.8554 38.422 24.1224 38.4238C23.3894 38.426 23.1212 38.4777 23.5264 38.539ZM17.6914 39.1486C15.4495 39.6553 13.2953 40.6052 11.7941 41.7492C10.9324 42.406 9.32914 44.3883 9.32914 44.7972C9.32914 44.915 9.75934 45.0112 10.2852 45.0112C11.0867 45.0112 11.5063 44.7588 12.884 43.4477C15.5575 40.903 16.6255 40.5746 15.5916 42.6147C15.2195 43.349 14.6065 45.2383 14.2296 46.8128C13.2212 51.0223 12.4648 52.2506 8.72382 55.7516C6.97688 57.3866 5.3339 59.1472 5.07242 59.6643C4.8112 60.1811 4.19549 61.7801 3.70424 63.2176C2.98937 65.3094 2.55304 66.1205 1.51751 67.2824C0.414546 68.5199 0.306065 68.7337 0.781314 68.7337C1.73474 68.7337 3.67466 67.6619 4.62489 66.6104C5.12466 66.0571 6.03624 64.7438 6.65063 63.6917C9.18174 59.358 10.5273 58.5144 17.5225 56.8746C22.795 55.6386 26.4125 53.9517 29.07 51.4896L30.2857 50.3632L32.8016 50.8821C34.9596 51.3275 38.697 51.6133 38.3604 51.3073C38.2991 51.2518 37.2478 51.1322 36.0236 51.0413C33.8931 50.8829 31.169 50.3349 29.9421 49.8178C29.32 49.5553 28.9423 50.0089 29.2078 50.7004C29.2901 50.9157 28.7592 51.5011 27.878 52.1663C26.2329 53.4084 26.0023 53.4916 26.19 52.7749C26.2902 52.3908 26.2051 52.3058 25.8211 52.406C25.3021 52.5419 25.1216 53.0076 25.5884 53.0076C26.2385 53.0076 25.7576 53.5916 24.7221 54.0596C24.0992 54.3411 23.0175 54.831 22.3187 55.1482C21.6198 55.4654 20.5403 55.7911 19.9198 55.8721C19.2992 55.9532 18.7315 56.1056 18.6582 56.2109C18.5849 56.3162 17.1666 56.7197 15.5063 57.1073C10.5731 58.2596 8.81364 59.475 6.58532 63.2703C6.06903 64.1494 5.39574 65.1569 5.08894 65.5093C4.78242 65.8617 4.53133 66.2402 4.53133 66.3505C4.53133 66.6355 2.11484 68.2006 1.67477 68.2006C1.44688 68.2006 1.66491 67.7339 2.25078 66.9662C2.7692 66.2874 3.39718 65.0581 3.6464 64.2342C3.89562 63.4105 4.25653 62.5472 4.4487 62.3156C4.64062 62.0842 4.79788 61.6903 4.79788 61.4405C4.79788 60.2682 6.19591 58.319 8.45381 56.3431C11.6046 53.5857 13.5939 51.2276 13.5939 50.2504C13.5939 50.0662 13.7111 49.7984 13.8545 49.655C13.9977 49.5118 14.1744 48.918 14.2472 48.3356C14.5044 46.2757 14.9937 44.7071 15.473 44.408C15.8086 44.1985 15.9173 43.8955 15.8259 43.4253C15.7353 42.9599 15.9128 42.4516 16.3891 41.8127C16.943 41.0698 17.0027 40.8627 16.6826 40.7956C15.9909 40.6508 14.4676 41.5443 13.0845 42.9058C11.6691 44.299 10.4777 44.9337 10.0605 44.5165C9.75561 44.2116 11.2984 42.4495 12.7518 41.4422C13.9156 40.6359 17.0864 39.4138 18.0153 39.4138C18.3517 39.4138 18.7054 39.5409 18.8013 39.6963C18.912 39.8754 19.1007 39.808 19.3171 39.5124C19.5173 39.2384 20.1946 38.9713 20.9574 38.8655L22.2566 38.6853L21.0571 38.6723C20.3974 38.6651 18.8829 38.8794 17.6914 39.1486ZM26.573 39.3176C26.36 39.5305 26.6007 39.9469 26.9368 39.9469C27.0749 39.9469 27.1876 39.767 27.1876 39.5471C27.1876 39.135 26.8731 39.0174 26.573 39.3176ZM20.2855 40.1961C20.0285 40.3549 20.0032 40.5493 20.1948 40.8915C20.4395 41.3289 20.4755 41.3193 20.6498 40.77C20.8748 40.061 20.7703 39.8965 20.2855 40.1961ZM37.9968 41.5235C37.911 41.6624 37.9544 41.846 38.0933 41.9318C38.2322 42.0177 38.4158 41.9742 38.5017 41.8353C38.5875 41.6965 38.544 41.5128 38.4052 41.427C38.2663 41.3412 38.0827 41.3846 37.9968 41.5235ZM33.1777 43.1571C32.9365 43.5474 33.2873 43.9402 33.7265 43.7715C33.9416 43.6892 34.1178 43.5271 34.1178 43.412C34.1178 43.0817 33.3525 42.8741 33.1777 43.1571ZM28.4388 43.5823C28.2258 43.7952 28.4665 44.2116 28.8026 44.2116C28.9407 44.2116 29.0534 44.0317 29.0534 43.8118C29.0534 43.3997 28.7389 43.2821 28.4388 43.5823ZM20.5227 46.6113C20.0637 46.8949 20.3321 47.2283 21.0624 47.2822C21.668 47.3267 21.7443 47.0703 21.248 46.6585C21.0392 46.4852 20.7567 46.4668 20.5227 46.6113ZM37.6748 47.8214C37.5879 48.0477 37.589 48.3046 37.6767 48.3926C37.9073 48.6229 38.6712 47.9283 38.4971 47.6465C38.2695 47.2785 37.8489 47.368 37.6748 47.8214ZM31.5035 48.7628C31.556 48.9204 31.713 49.0494 31.8522 49.0494C31.9913 49.0494 32.1483 48.9204 32.2008 48.7628C32.2533 48.6053 32.0966 48.4763 31.8522 48.4763C31.6077 48.4763 31.451 48.6053 31.5035 48.7628ZM24.2556 50.3421C24.2556 50.4887 24.4428 50.6087 24.6712 50.6087C24.8996 50.6087 25.0126 50.4887 24.922 50.3421C24.8314 50.1955 24.6445 50.0756 24.5065 50.0756C24.3684 50.0756 24.2556 50.1955 24.2556 50.3421ZM16.8001 53.5303C16.5845 53.6667 16.4893 53.8594 16.5887 53.9589C16.8326 54.2028 17.592 53.8925 17.592 53.5489C17.592 53.2104 17.3162 53.204 16.8001 53.5303ZM11.9946 55.1317C11.9946 55.2735 12.1745 55.3206 12.3944 55.2364C12.6143 55.1519 12.7942 55.0357 12.7942 54.9781C12.7942 54.9206 12.6143 54.8734 12.3944 54.8734C12.1745 54.8734 11.9946 54.9896 11.9946 55.1317ZM8.5295 58.9382C8.5295 59.2285 8.67344 59.4012 8.86268 59.338C9.35473 59.1743 9.41843 58.4272 8.94025 58.4272C8.71315 58.4272 8.5295 58.6556 8.5295 58.9382Z" fill="url(#paint1_linear_185_4915)"/>
<defs>
<linearGradient id="paint0_linear_185_4915" x1="25" y1="16" x2="50" y2="74" gradientUnits="userSpaceOnUse">
<stop stop-color="#1D8C89"/>
<stop offset="1" stop-color="#C9E87D" stop-opacity="0.9"/>
</linearGradient>
<linearGradient id="paint1_linear_185_4915" x1="24.9748" y1="16.6027" x2="49.654" y2="73.557" gradientUnits="userSpaceOnUse">
<stop stop-color="#1D8C89"/>
<stop offset="1" stop-color="#C9E87D" stop-opacity="0.9"/>
</linearGradient>
</defs>
</svg>
