<svg width="40" height="40" viewBox="0 0 40 40" fill="none" xmlns="http://www.w3.org/2000/svg">
<path d="M38.4375 21.3867C38.9323 21.8555 39.3164 22.4023 39.5898 23.0273C39.8633 23.6523 40 24.3099 40 25C40 25.6901 39.8698 26.3346 39.6094 26.9336C39.349 27.5326 38.9909 28.0664 38.5352 28.5352C38.0794 29.0039 37.5521 29.362 36.9531 29.6094C36.3542 29.8568 35.7031 29.987 35 30C34.7266 30 34.4531 29.9805 34.1797 29.9414L24.9805 34.5312C24.9935 34.6094 25 34.6875 25 34.7656C25 34.8438 25 34.9219 25 35C25 35.6901 24.8698 36.3346 24.6094 36.9336C24.349 37.5326 23.9909 38.0664 23.5352 38.5352C23.0794 39.0039 22.5521 39.362 21.9531 39.6094C21.3542 39.8568 20.7031 39.987 20 40C19.3229 40 18.6849 39.8698 18.0859 39.6094C17.487 39.349 16.9531 38.9974 16.4844 38.5547C16.0156 38.112 15.651 37.5846 15.3906 36.9727C15.1302 36.3607 14.9935 35.7227 14.9805 35.0586V34.8047C14.9805 34.7266 14.9935 34.6354 15.0195 34.5312L5.82031 29.9414C5.54688 29.9805 5.27344 30 5 30C4.3099 30 3.66536 29.8698 3.06641 29.6094C2.46745 29.349 1.93359 28.9909 1.46484 28.5352C0.996094 28.0794 0.638021 27.5521 0.390625 26.9531C0.143229 26.3542 0.0130208 25.7031 0 25C0 24.0755 0.234375 23.2227 0.703125 22.4414C1.17188 21.6602 1.81641 21.0482 2.63672 20.6055L6.05469 8.06641C5.35156 7.16797 5 6.14583 5 5C5 4.3099 5.13021 3.66536 5.39062 3.06641C5.65104 2.46745 6.00911 1.93359 6.46484 1.46484C6.92057 0.996094 7.44792 0.638021 8.04688 0.390625C8.64583 0.143229 9.29688 0.0130208 10 0C10.8984 0 11.7318 0.221354 12.5 0.664062C13.2682 1.10677 13.8802 1.71875 14.3359 2.5H25.6641C26.1198 1.71875 26.7318 1.10677 27.5 0.664062C28.2682 0.221354 29.1016 0 30 0C30.6901 0 31.3346 0.130208 31.9336 0.390625C32.5326 0.651042 33.0664 1.00911 33.5352 1.46484C34.0039 1.92057 34.362 2.44792 34.6094 3.04688C34.8568 3.64583 34.987 4.29688 35 5C35 5.54688 34.9154 6.07422 34.7461 6.58203C34.5768 7.08984 34.3229 7.5651 33.9844 8.00781L38.4375 21.3867ZM30 25C30 24.2839 30.1432 23.6003 30.4297 22.9492C30.7161 22.2982 31.1328 21.7383 31.6797 21.2695L22.9102 14.6875L9.96094 24.3945L10 25H30ZM10 10C9.38802 10 8.78906 9.88932 8.20312 9.66797L5.39062 20.0195C6.10677 20.0846 6.77734 20.2865 7.40234 20.625C8.02734 20.9635 8.5612 21.4193 9.00391 21.9922L20.8398 13.125L14.0039 8.00781C13.5221 8.63281 12.9362 9.12109 12.2461 9.47266C11.556 9.82422 10.8073 10 10 10ZM34.2383 20.0586C34.3424 20.0326 34.4596 20.0195 34.5898 20.0195C34.7201 20.0195 34.8438 20.013 34.9609 20H35.1562C35.2214 20 35.2865 20.0065 35.3516 20.0195L31.8945 9.62891C31.2565 9.8763 30.625 10 30 10C29.7396 10 29.4857 9.98047 29.2383 9.94141L25 13.125L34.2383 20.0586ZM30 2.5C29.6484 2.5 29.3229 2.5651 29.0234 2.69531C28.724 2.82552 28.4635 3.0013 28.2422 3.22266C28.0208 3.44401 27.8385 3.71094 27.6953 4.02344C27.5521 4.33594 27.487 4.66146 27.5 5C27.5 5.35156 27.5651 5.67708 27.6953 5.97656C27.8255 6.27604 28.0013 6.53646 28.2227 6.75781C28.444 6.97917 28.7109 7.16146 29.0234 7.30469C29.3359 7.44792 29.6615 7.51302 30 7.5C30.3516 7.5 30.6771 7.4349 30.9766 7.30469C31.276 7.17448 31.5365 6.9987 31.7578 6.77734C31.9792 6.55599 32.1615 6.28906 32.3047 5.97656C32.4479 5.66406 32.513 5.33854 32.5 5C32.5 4.64844 32.4349 4.32292 32.3047 4.02344C32.1745 3.72396 31.9987 3.46354 31.7773 3.24219C31.556 3.02083 31.2891 2.83854 30.9766 2.69531C30.6641 2.55208 30.3385 2.48698 30 2.5ZM25 5H15L14.9609 5.60547L22.9102 11.5625L26.6797 8.73047C26.1328 8.26172 25.7161 7.70182 25.4297 7.05078C25.1432 6.39974 25 5.71615 25 5ZM10 2.5C9.64844 2.5 9.32292 2.5651 9.02344 2.69531C8.72396 2.82552 8.46354 3.0013 8.24219 3.22266C8.02083 3.44401 7.83854 3.71094 7.69531 4.02344C7.55208 4.33594 7.48698 4.66146 7.5 5C7.5 5.35156 7.5651 5.67708 7.69531 5.97656C7.82552 6.27604 8.0013 6.53646 8.22266 6.75781C8.44401 6.97917 8.71094 7.16146 9.02344 7.30469C9.33594 7.44792 9.66146 7.51302 10 7.5C10.3516 7.5 10.6771 7.4349 10.9766 7.30469C11.276 7.17448 11.5365 6.9987 11.7578 6.77734C11.9792 6.55599 12.1615 6.28906 12.3047 5.97656C12.4479 5.66406 12.513 5.33854 12.5 5C12.5 4.64844 12.4349 4.32292 12.3047 4.02344C12.1745 3.72396 11.9987 3.46354 11.7773 3.24219C11.556 3.02083 11.2891 2.83854 10.9766 2.69531C10.6641 2.55208 10.3385 2.48698 10 2.5ZM2.5 25C2.5 25.3516 2.5651 25.6771 2.69531 25.9766C2.82552 26.276 3.0013 26.5365 3.22266 26.7578C3.44401 26.9792 3.71094 27.1615 4.02344 27.3047C4.33594 27.4479 4.66146 27.513 5 27.5C5.35156 27.5 5.67708 27.4349 5.97656 27.3047C6.27604 27.1745 6.53646 26.9987 6.75781 26.7773C6.97917 26.556 7.16146 26.2891 7.30469 25.9766C7.44792 25.6641 7.51302 25.3385 7.5 25C7.5 24.6484 7.4349 24.3229 7.30469 24.0234C7.17448 23.724 6.9987 23.4635 6.77734 23.2422C6.55599 23.0208 6.28906 22.8385 5.97656 22.6953C5.66406 22.5521 5.33854 22.487 5 22.5C4.64844 22.5 4.32292 22.5651 4.02344 22.6953C3.72396 22.8255 3.46354 23.0013 3.24219 23.2227C3.02083 23.444 2.83854 23.7109 2.69531 24.0234C2.55208 24.3359 2.48698 24.6615 2.5 25ZM20 37.5C20.3516 37.5 20.6771 37.4349 20.9766 37.3047C21.276 37.1745 21.5365 36.9987 21.7578 36.7773C21.9792 36.556 22.1615 36.2891 22.3047 35.9766C22.4479 35.6641 22.513 35.3385 22.5 35C22.5 34.6484 22.4349 34.3229 22.3047 34.0234C22.1745 33.724 21.9987 33.4635 21.7773 33.2422C21.556 33.0208 21.2891 32.8385 20.9766 32.6953C20.6641 32.5521 20.3385 32.487 20 32.5C19.6484 32.5 19.3229 32.5651 19.0234 32.6953C18.724 32.8255 18.4635 33.0013 18.2422 33.2227C18.0208 33.444 17.8385 33.7109 17.6953 34.0234C17.5521 34.3359 17.487 34.6615 17.5 35C17.5 35.3516 17.5651 35.6771 17.6953 35.9766C17.8255 36.276 18.0013 36.5365 18.2227 36.7578C18.444 36.9792 18.7109 37.1615 19.0234 37.3047C19.3359 37.4479 19.6615 37.513 20 37.5ZM20 30C20.8203 30 21.5951 30.1888 22.3242 30.5664C23.0534 30.944 23.6523 31.4779 24.1211 32.168L31.4453 28.5156C31.3021 28.3594 31.1654 28.1966 31.0352 28.0273C30.9049 27.8581 30.7812 27.6823 30.6641 27.5H9.33594C9.23177 27.6823 9.11458 27.8581 8.98438 28.0273C8.85417 28.1966 8.71094 28.3594 8.55469 28.5156L15.8789 32.168C16.3346 31.4909 16.9271 30.9635 17.6562 30.5859C18.3854 30.2083 19.1667 30.013 20 30ZM35 27.5C35.3516 27.5 35.6771 27.4349 35.9766 27.3047C36.276 27.1745 36.5365 26.9987 36.7578 26.7773C36.9792 26.556 37.1615 26.2891 37.3047 25.9766C37.4479 25.6641 37.513 25.3385 37.5 25C37.5 24.5703 37.3958 24.1667 37.1875 23.7891C36.9792 23.4115 36.6927 23.112 36.3281 22.8906L36.3086 22.9102L36.2891 22.8906L36.3086 22.8711C35.8919 22.6237 35.4557 22.5 35 22.5C34.6484 22.5 34.3229 22.5651 34.0234 22.6953C33.724 22.8255 33.4635 23.0013 33.2422 23.2227C33.0208 23.444 32.8385 23.7109 32.6953 24.0234C32.5521 24.3359 32.487 24.6615 32.5 25C32.5 25.3516 32.5651 25.6771 32.6953 25.9766C32.8255 26.276 33.0013 26.5365 33.2227 26.7578C33.444 26.9792 33.7109 27.1615 34.0234 27.3047C34.3359 27.4479 34.6615 27.513 35 27.5Z" fill="url(#paint0_linear_186_6193)"/>
<defs>
<linearGradient id="paint0_linear_186_6193" x1="20" y1="0" x2="20" y2="40" gradientUnits="userSpaceOnUse">
<stop stop-color="#1D8C89"/>
<stop offset="1" stop-color="#C9E87D" stop-opacity="0.9"/>
</linearGradient>
</defs>
</svg>
